<svg id="Capa_1" enable-background="new 0 0 512 512" height="512" viewBox="0 0 512 512" width="512" xmlns="http://www.w3.org/2000/svg" xmlns:xlink="http://www.w3.org/1999/xlink"><linearGradient id="SVGID_1_" gradientUnits="userSpaceOnUse" x1="74.98" x2="437.019" y1="437.019" y2="74.98"><stop offset="0" stop-color="#ff4747"/><stop offset="1" stop-color="#fff200"/></linearGradient><radialGradient id="SVGID_2_" cx="-7323.445" cy="-5179.924" gradientTransform="matrix(1 0 0 .789 7579.445 4340.835)" gradientUnits="userSpaceOnUse" r="332.399"><stop offset="0" stop-color="#ff4747"/><stop offset=".1905" stop-color="#ff7554" stop-opacity=".8"/><stop offset=".45" stop-color="#ffae63" stop-opacity=".528"/><stop offset=".673" stop-color="#ffd76f" stop-opacity=".294"/><stop offset=".8482" stop-color="#fff175" stop-opacity=".111"/><stop offset=".9537" stop-color="#fffa78" stop-opacity="0"/></radialGradient><linearGradient id="SVGID_3_" gradientUnits="userSpaceOnUse" x1="-209.43" x2="451.909" y1="622.268" y2="-39.071"><stop offset="0" stop-color="#fff200"/><stop offset=".2985" stop-color="#fff654"/><stop offset=".6424" stop-color="#fffbaf"/><stop offset=".8843" stop-color="#fffee9"/><stop offset="1" stop-color="#fff"/></linearGradient><linearGradient id="SVGID_4_" gradientUnits="userSpaceOnUse" x1="-145.312" x2="502.374" y1="712.796" y2="65.11"><stop offset="0" stop-color="#fffa78"/><stop offset="1" stop-color="#fff"/></linearGradient><linearGradient id="lg1"><stop offset="0" stop-color="#ffb11d"/><stop offset=".4622" stop-color="#ffd449"/><stop offset="1" stop-color="#fffa78"/></linearGradient><linearGradient id="SVGID_5_" gradientUnits="userSpaceOnUse" x1="-26.968" x2="341.249" xlink:href="#lg1" y1="438.048" y2="69.831"/><linearGradient id="SVGID_6_" gradientUnits="userSpaceOnUse" x1="171.914" x2="447.08" xlink:href="#lg1" y1="441.005" y2="165.839"/><linearGradient id="lg2"><stop offset="0" stop-color="#fff200"/><stop offset=".6578" stop-color="#fefb90"/><stop offset="1" stop-color="#feffd6"/></linearGradient><linearGradient id="SVGID_7_" gradientUnits="userSpaceOnUse" x1=".49" x2="431.456" xlink:href="#lg2" y1="511.51" y2="80.545"/><linearGradient id="SVGID_8_" gradientUnits="userSpaceOnUse" x1="3.728" x2="429.232" xlink:href="#lg2" y1="508.272" y2="82.768"/><g><circle cx="256" cy="256" fill="url(#SVGID_1_)" r="256"/><circle cx="256" cy="256" fill="url(#SVGID_2_)" r="256"/><path d="m98.525 141.378c-4.139.09-7.744 3.556-8.027 7.73-1.098 16.727-15.333 30.473-32.162 30.752-4.225.077-7.857 3.521-8.083 7.689-2.455 45.634-2.455 91.267 0 136.9.226 4.166 3.858 7.612 8.083 7.689 16.829.281 31.064 14.027 32.162 30.752.283 4.177 3.888 7.64 8.027 7.73 39.983.871 79.967 1.411 119.95 1.618-1.251-77.493-1.251-154.987 0-232.48-39.983.21-79.967.749-119.95 1.62z" fill="url(#SVGID_3_)"/><path d="m453.664 179.861c-16.829-.28-31.064-14.027-32.162-30.752-.283-4.175-3.888-7.639-8.027-7.73-65-1.416-130-1.956-195-1.618-16.525.093-30.377 13.957-30.774 30.885-1.218 56.904-1.218 113.807 0 170.711.398 16.928 14.25 30.793 30.774 30.885 65 .338 130-.202 195-1.618 4.139-.09 7.744-3.554 8.027-7.73 1.098-16.728 15.333-30.472 32.162-30.752 4.225-.077 7.858-3.522 8.083-7.689 2.455-45.634 2.455-91.267 0-136.9-.226-4.17-3.858-7.615-8.083-7.692z" fill="url(#SVGID_4_)"/><path d="m187.701 170.645c-17.692.12-35.385.287-53.077.501-16.723.217-31.003 14.012-31.54 30.751-1.111 36.069-1.111 72.138 0 108.208.538 16.737 14.817 30.535 31.54 30.751 17.692.214 35.385.381 53.077.501 14.563-28.349 29.836-56.835 45.211-85.355-15.375-28.523-30.649-57.009-45.211-85.357z" fill="url(#SVGID_5_)"/><path d="m377.376 171.146c-17.692-.214-35.385-.381-53.077-.501-14.563 28.349-29.836 56.835-45.211 85.355 15.375 28.521 30.648 57.007 45.211 85.355 17.692-.12 35.385-.287 53.077-.501 16.724-.217 31.003-14.014 31.54-30.751 1.111-36.069 1.111-72.138 0-108.208-.537-16.738-14.816-30.533-31.54-30.749z" fill="url(#SVGID_6_)"/><path d="m256 342.587c-22.663 0-45.644-.078-68.306-.232l-.972-.007-.021-.972c-1.213-56.652-1.213-114.102 0-170.754l.021-.972.972-.007c22.662-.154 45.644-.232 68.306-.232s45.644.078 68.306.232l.972.007.021.972c1.213 56.652 1.213 114.102 0 170.754l-.021.972-.972.007c-22.662.154-45.643.232-68.306.232z" fill="url(#SVGID_7_)"/><g fill="url(#SVGID_8_)"><path d="m256 341.587c-22.645 0-45.625-.078-68.299-.232-1.213-56.638-1.213-114.073 0-170.711 22.648-.154 45.627-.232 68.299-.232s45.651.078 68.299.232c1.213 56.638 1.213 114.073 0 170.711-22.674.154-45.654.232-68.299.232z"/><path d="m256 341.587c-22.645 0-45.625-.078-68.299-.232-1.213-56.638-1.213-114.073 0-170.711 22.648-.154 45.627-.232 68.299-.232s45.651.078 68.299.232c1.213 56.638 1.213 114.073 0 170.711-22.674.154-45.654.232-68.299.232z"/></g></g></svg>